<svg xmlns="http://www.w3.org/2000/svg" version="1.1" xmlns:xlink="http://www.w3.org/1999/xlink" xmlns:svgjs="http://svgjs.dev/svgjs" width="1000" height="1000" viewBox="0 0 1000 1000"><rect width="1000" height="1000" fill="#ffffff"></rect><g transform="matrix(0.7,0,0,0.7,149.57577264547012,282.1265587044535)"><svg viewBox="0 0 396 247" data-background-color="#ffffff" preserveAspectRatio="xMidYMid meet" height="623" width="1000" xmlns="http://www.w3.org/2000/svg" xmlns:xlink="http://www.w3.org/1999/xlink"><g id="tight-bounds" transform="matrix(1,0,0,1,0.23999156912248054,-0.09999999999999432)"><svg viewBox="0 0 395.52 247.2" height="247.2" width="395.52"><g><svg></svg></g><g><svg viewBox="0 0 395.52 247.2" height="247.2" width="395.52"><g><g><path xmlns="http://www.w3.org/2000/svg" d="M35.899 247.2v-10.579h129.771l-6.387-17.564 11.313 0 10.237 28.143zM12.272 247.2h-11.285l10.238-28.143h11.285zM90.91 0l10.238 28.143-20.475 0zM218.213 0.353h176.32v10.579h-82.871v17.211l-10.579 0v-17.211h-82.87zM311.662 247.2h-10.579v-28.143l10.579 0z" fill="#113f67" fill-rule="nonzero" stroke="none" stroke-width="1" stroke-linecap="butt" stroke-linejoin="miter" stroke-miterlimit="10" stroke-dasharray="" stroke-dashoffset="0" font-family="none" font-weight="none" font-size="none" text-anchor="none" style="mix-blend-mode: normal" data-fill-palette-color="tertiary"></path></g></g><g transform="matrix(1,0,0,1,0,45.47146231271253)"><svg viewBox="0 0 395.52 156.25707537457492" height="156.25707537457492" width="395.52"><g><svg viewBox="0 0 395.52 156.25707537457492" height="156.25707537457492" width="395.52"><g><svg viewBox="0 0 395.52 156.25707537457492" height="156.25707537457492" width="395.52"><g><svg viewBox="0 0 395.52 156.25707537457492" height="156.25707537457492" width="395.52"><g><svg viewBox="0 0 395.52 156.25707537457492" height="156.25707537457492" width="395.52"><g><svg viewBox="0 0 395.52 118.74825724758414" height="118.74825724758414" width="395.52"><g transform="matrix(1,0,0,1,0,0)"><svg width="395.52" viewBox="0.9000000357627869 -35.04999923706055 150.04000854492188 45.04999923706055" height="118.74825724758414" data-palette-color="#113f67"><path d="M5.85 0L5.85-1.5 24.25-1.5 13.65-30.65 2.5 0 0.9 0 13.65-35.05 26.4 0 5.85 0ZM33.55 0L32.05 0 32.05-29 33.55-29 49.85-2.75 49.85-29 51.35-29 51.35 0 49.85 0 33.55-26.3 33.55 0ZM64.64 0L64.64 0 60.84 0 60.84-29 64.64-29Q72.05-29 76.44-25.1 80.84-21.2 80.84-14.5 80.84-7.8 76.44-3.9 72.05 0 64.64 0ZM62.34-1.5L64.64-1.5Q71.39-1.5 75.37-4.95 79.34-8.4 79.34-14.5 79.34-20.6 75.37-24.05 71.39-27.5 64.64-27.5L64.64-27.5 62.34-27.5 62.34-1.5ZM90.24-27.5L90.24-29 109.59-29 97.84-1.25 97.84 10 96.34 10 96.34-1.25 84.59-29 86.19-29 97.09-3.35 107.34-27.5 90.24-27.5ZM125.94-35L150.94-35 150.94-33.5 139.19-33.5 139.19 0 137.69 0 137.69-33.5 125.94-33.5 125.94-35Z" opacity="1" transform="matrix(1,0,0,1,0,0)" fill="#113f67" class="undefined-text-0" data-fill-palette-color="primary" id="text-0"></path></svg></g></svg></g><g transform="matrix(1,0,0,1,0,136.0764779381806)"><svg viewBox="0 0 395.52 20.18059743639434" height="20.18059743639434" width="395.52"><g transform="matrix(1,0,0,1,0,0)"><svg width="395.52" viewBox="4.579999923706055 -35.38999938964844 912.9599609375 46.59000015258789" height="20.18059743639434" data-palette-color="#023a49"><path d="M8.14-21.16L8.14-21.16 8.14 0 4.58 0 4.58-33.27 10.39-33.27 20.93-5.81 21.11-5.81 31.72-33.27 37.51-33.27 37.51 0 33.65 0 33.65-21.44Q33.65-25.28 33.97-29.45L33.97-29.45 33.77-29.45 22.4 0 19.29 0 8.01-29.47 7.84-29.47Q8.14-25.99 8.14-21.16ZM45.83 11.2L45.83 11.2Q44.13 11.2 42.41 10.82L42.41 10.82 42.41 7.79Q43.73 8.06 45.22 8.06L45.22 8.06Q49.11 8.06 50.78 3.69L50.78 3.69 52.17 0.13 42.11-24.92 46.16-24.92 51.62-10.72Q53.46-5.66 53.84-3.69L53.84-3.69 54.02-3.69Q54.35-4.98 55.22-7.56 56.09-10.14 61.45-24.92L61.45-24.92 65.49-24.92 54.78 3.46Q53.21 7.63 51.08 9.42 48.96 11.2 45.83 11.2ZM118.55-16.25L118.55 0 114.78 0 114.78-16.23Q114.78-22.17 109.55-22.17L109.55-22.17Q106.01-22.17 104.33-20.15 102.65-18.12 102.65-13.93L102.65-13.93 102.65 0 98.88 0 98.88-16.23Q98.88-19.24 97.59-20.7 96.3-22.17 93.62-22.17L93.62-22.17Q90.03-22.17 88.4-20.03 86.77-17.9 86.77-13.07L86.77-13.07 86.77 0 82.98 0 82.98-24.92 86.06-24.92 86.67-21.51 86.85-21.51Q87.93-23.33 89.88-24.36 91.83-25.38 94.23-25.38L94.23-25.38Q100.07-25.38 101.86-21.16L101.86-21.16 102.07-21.16Q103.2-23.13 105.31-24.25 107.42-25.38 110.1-25.38L110.1-25.38Q114.4-25.38 116.47-23.18 118.55-20.98 118.55-16.25L118.55-16.25ZM129.82-29.82Q129.19-29.17 128.2-29.17 127.21-29.17 126.61-29.82 126-30.46 126-31.7 126-32.94 126.61-33.57 127.21-34.2 128.2-34.2 129.19-34.2 129.82-33.56 130.45-32.91 130.45-31.69 130.45-30.46 129.82-29.82ZM126.3-24.92L130.1-24.92 130.1 0 126.3 0 126.3-24.92ZM154.18-6.8L154.18-6.8Q154.18-3.31 151.59-1.43 149 0.46 144.17 0.46 139.35 0.46 136.56-1.11L136.56-1.11 136.56-4.63Q140.46-2.65 144.4-2.65L144.4-2.65Q150.54-2.65 150.54-6.47L150.54-6.47Q150.54-7.94 149.25-8.99 147.97-10.04 144.45-11.36 140.94-12.69 139.4-13.68L139.4-13.68Q136.49-15.65 136.49-18.76 136.49-21.87 138.97-23.62 141.44-25.38 145.65-25.38 149.86-25.38 153.65-23.76L153.65-23.76 152.31-20.68Q148.6-22.22 145.73-22.22 142.86-22.22 141.48-21.4 140.1-20.58 140.1-19.06L140.1-19.06Q140.1-18.1 140.6-17.38 141.09-16.66 142.23-16.01 143.36-15.37 146.63-14.18L146.63-14.18Q151.07-12.54 152.63-10.91 154.18-9.28 154.18-6.8ZM176.4-6.8L176.4-6.8Q176.4-3.31 173.81-1.43 171.22 0.46 166.39 0.46 161.56 0.46 158.78-1.11L158.78-1.11 158.78-4.63Q162.67-2.65 166.62-2.65L166.62-2.65Q172.76-2.65 172.76-6.47L172.76-6.47Q172.76-7.94 171.47-8.99 170.18-10.04 166.67-11.36 163.15-12.69 161.61-13.68L161.61-13.68Q158.71-15.65 158.71-18.76 158.71-21.87 161.18-23.62 163.66-25.38 167.87-25.38 172.08-25.38 175.87-23.76L175.87-23.76 174.53-20.68Q170.81-22.22 167.95-22.22 165.08-22.22 163.7-21.4 162.32-20.58 162.32-19.06L162.32-19.06Q162.32-18.1 162.81-17.38 163.31-16.66 164.44-16.01 165.58-15.37 168.84-14.18L168.84-14.18Q173.29-12.54 174.85-10.91 176.4-9.28 176.4-6.8ZM186.03-29.82Q185.4-29.17 184.41-29.17 183.43-29.17 182.82-29.82 182.21-30.46 182.21-31.7 182.21-32.94 182.82-33.57 183.43-34.2 184.41-34.2 185.4-34.2 186.03-33.56 186.66-32.91 186.66-31.69 186.66-30.46 186.03-29.82ZM182.52-24.92L186.31-24.92 186.31 0 182.52 0 182.52-24.92ZM195.97-21.99Q199.04-25.38 204.35-25.38 209.66-25.38 212.75-21.9 215.83-18.43 215.83-12.42 215.83-6.42 212.75-2.96L212.75-2.96Q209.66 0.46 204.28 0.46L204.28 0.46Q199.2 0.51 196.01-3.06 192.83-6.62 192.9-12.49L192.9-12.49Q192.9-18.6 195.97-21.99ZM204.3-22.17L204.3-22.17Q196.82-22.17 196.82-12.49L196.82-12.49Q196.82-7.71 198.73-5.21 200.64-2.7 204.35-2.7 208.07-2.7 209.99-5.19 211.91-7.68 211.91-12.47 211.91-17.26 209.99-19.72 208.07-22.17 204.3-22.17ZM243.28-16.25L243.28 0 239.49 0 239.49-16.13Q239.49-19.21 238.1-20.69 236.71-22.17 233.77-22.17L233.77-22.17Q229.86-22.17 228.04-20.06 226.22-17.95 226.22-13.07L226.22-13.07 226.22 0 222.42 0 222.42-24.92 225.51-24.92 226.12-21.51 226.29-21.51Q227.45-23.33 229.55-24.36 231.65-25.38 234.23-25.38L234.23-25.38Q238.78-25.38 241.03-23.18 243.28-20.98 243.28-16.25L243.28-16.25ZM267.97-29.82Q267.34-29.17 266.35-29.17 265.37-29.17 264.76-29.82 264.15-30.46 264.15-31.7 264.15-32.94 264.76-33.57 265.37-34.2 266.35-34.2 267.34-34.2 267.97-33.56 268.6-32.91 268.6-31.69 268.6-30.46 267.97-29.82ZM264.46-24.92L268.25-24.92 268.25 0 264.46 0 264.46-24.92ZM292.34-6.8L292.34-6.8Q292.34-3.31 289.75-1.43 287.15 0.46 282.33 0.46 277.5 0.46 274.72-1.11L274.72-1.11 274.72-4.63Q278.61-2.65 282.55-2.65L282.55-2.65Q288.7-2.65 288.7-6.47L288.7-6.47Q288.7-7.94 287.41-8.99 286.12-10.04 282.6-11.36 279.09-12.69 277.55-13.68L277.55-13.68Q274.64-15.65 274.64-18.76 274.64-21.87 277.12-23.62 279.6-25.38 283.8-25.38 288.01-25.38 291.81-23.76L291.81-23.76 290.47-20.68Q286.75-22.22 283.88-22.22 281.01-22.22 279.63-21.4 278.26-20.58 278.26-19.06L278.26-19.06Q278.26-18.1 278.75-17.38 279.24-16.66 280.38-16.01 281.52-15.37 284.78-14.18L284.78-14.18Q289.23-12.54 290.78-10.91 292.34-9.28 292.34-6.8ZM315.97-21.99L315.97-7.33Q315.97-5.08 317.02-3.87 318.06-2.65 319.9-2.65 321.73-2.65 323.37-3.11L323.37-3.11 323.37-0.23Q322.79 0.05 321.54 0.25 320.29 0.46 319.4 0.46L319.4 0.46Q312.17 0.46 312.17-7.15L312.17-7.15 312.17-21.99 308.61-21.99 308.61-23.81 312.17-25.38 313.77-30.71 315.97-30.71 315.97-24.92 323.2-24.92 323.2-21.99 315.97-21.99ZM330.03-21.99Q333.1-25.38 338.41-25.38 343.72-25.38 346.8-21.9 349.89-18.43 349.89-12.42 349.89-6.42 346.8-2.96L346.8-2.96Q343.72 0.46 338.33 0.46L338.33 0.46Q333.25 0.51 330.07-3.06 326.88-6.62 326.96-12.49L326.96-12.49Q326.96-18.6 330.03-21.99ZM338.36-22.17L338.36-22.17Q330.88-22.17 330.88-12.49L330.88-12.49Q330.88-7.71 332.79-5.21 334.69-2.7 338.41-2.7 342.13-2.7 344.05-5.19 345.97-7.68 345.97-12.47 345.97-17.26 344.05-19.72 342.13-22.17 338.36-22.17ZM380.47 0.46L380.47 0.46Q374.93 0.46 371.72-2.91L371.72-2.91Q368.54-6.27 368.54-12.29 368.54-18.3 371.49-21.84L371.49-21.84Q374.5-25.38 379.34-25.38 384.18-25.38 386.91-22.3 389.64-19.21 389.64-14.18L389.64-14.18 389.64-11.78 372.45-11.78Q372.58-7.41 374.68-5.12 376.78-2.83 380.73-2.83 384.69-2.83 388.56-4.52L388.56-4.52 388.56-1.16Q386.61-0.3 384.79 0.08 382.97 0.46 380.47 0.46ZM372.56-14.86L385.6-14.86Q385.6-18.43 384.01-20.32 382.41-22.22 379.44-22.22 376.47-22.22 374.67-20.27 372.86-18.33 372.56-14.86L372.56-14.86ZM396.29 0L392.02 0 401.14-12.77 392.47-24.92 396.77-24.92 403.34-15.37 409.89-24.92 414.16-24.92 405.49-12.77 414.62 0 410.34 0 403.34-10.11 396.29 0ZM428.59 0.46L428.59 0.46Q423.16 0.46 420.17-2.88L420.17-2.88Q417.22-6.22 417.22-12.37 417.22-18.53 420.23-21.97L420.23-21.97Q423.26-25.38 428.82-25.38L428.82-25.38Q430.64-25.38 432.43-25 434.23-24.62 435.24-24.09L435.24-24.09 434.08-20.88Q431.27-22.04 428.74-22.04L428.74-22.04Q421.14-22.04 421.14-12.36L421.14-12.36Q421.14-7.74 423.01-5.28 424.88-2.83 428.49-2.83L428.49-2.83Q431.58-2.83 434.89-4.2L434.89-4.2 434.89-0.83Q432.38 0.46 428.59 0.46ZM451.32 0.46L451.32 0.46Q445.78 0.46 442.57-2.91L442.57-2.91Q439.38-6.27 439.38-12.29 439.38-18.3 442.34-21.84L442.34-21.84Q445.35-25.38 450.19-25.38 455.03-25.38 457.76-22.3 460.49-19.21 460.49-14.18L460.49-14.18 460.49-11.78 443.3-11.78Q443.43-7.41 445.53-5.12 447.62-2.83 451.58-2.83 455.54-2.83 459.4-4.52L459.4-4.52 459.4-1.16Q457.46-0.3 455.64 0.08 453.82 0.46 451.32 0.46ZM443.4-14.86L456.45-14.86Q456.45-18.43 454.85-20.32 453.26-22.22 450.29-22.22 447.32-22.22 445.51-20.27 443.71-18.33 443.4-14.86L443.4-14.86ZM477.45 0.46L477.45 0.46Q471.91 0.46 468.7-2.91L468.7-2.91Q465.52-6.27 465.52-12.29 465.52-18.3 468.48-21.84L468.48-21.84Q471.48-25.38 476.33-25.38 481.17-25.38 483.9-22.3 486.63-19.21 486.63-14.18L486.63-14.18 486.63-11.78 469.44-11.78Q469.56-7.41 471.66-5.12 473.76-2.83 477.72-2.83 481.67-2.83 485.54-4.52L485.54-4.52 485.54-1.16Q483.59-0.3 481.77 0.08 479.95 0.46 477.45 0.46ZM469.54-14.86L482.58-14.86Q482.58-18.43 480.99-20.32 479.4-22.22 476.43-22.22 473.46-22.22 471.65-20.27 469.84-18.33 469.54-14.86L469.54-14.86ZM497.34-19.65Q495.57-17.09 495.57-12.34 495.57-7.58 497.33-5.14 499.09-2.7 502.47-2.7L502.47-2.7Q506.34-2.7 508.08-4.82 509.83-6.93 509.83-11.6L509.83-11.6 509.83-12.39Q509.83-17.72 508.06-19.97 506.29-22.22 502.42-22.22L502.42-22.22Q499.11-22.22 497.34-19.65ZM509.83-3.34Q507.2 0.46 502.16 0.46 497.11 0.46 494.38-2.88L494.38-2.88Q491.65-6.27 491.65-12.41 491.65-18.55 494.38-21.97 497.11-25.38 502.11-25.38 507.1-25.38 509.78-21.71L509.78-21.71 510.08-21.71 509.9-23.51 509.83-25.25 509.83-35.39 513.6-35.39 513.6 0 510.54 0 510.03-3.34 509.83-3.34ZM534.8 11.2L534.8 11.2Q533.1 11.2 531.39 10.82L531.39 10.82 531.39 7.79Q532.7 8.06 534.19 8.06L534.19 8.06Q538.08 8.06 539.75 3.69L539.75 3.69 541.14 0.13 531.08-24.92 535.13-24.92 540.59-10.72Q542.43-5.66 542.81-3.69L542.81-3.69 542.99-3.69Q543.32-4.98 544.19-7.56 545.06-10.14 550.42-24.92L550.42-24.92 554.46-24.92 543.75 3.46Q542.18 7.63 540.06 9.42 537.93 11.2 534.8 11.2ZM560.19-21.99Q563.26-25.38 568.57-25.38 573.88-25.38 576.96-21.9 580.04-18.43 580.04-12.42 580.04-6.42 576.96-2.96L576.96-2.96Q573.88 0.46 568.49 0.46L568.49 0.46Q563.41 0.51 560.23-3.06 557.04-6.62 557.12-12.49L557.12-12.49Q557.12-18.6 560.19-21.99ZM568.52-22.17L568.52-22.17Q561.03-22.17 561.03-12.49L561.03-12.49Q561.03-7.71 562.94-5.21 564.85-2.7 568.57-2.7 572.28-2.7 574.2-5.19 576.13-7.68 576.13-12.47 576.13-17.26 574.2-19.72 572.28-22.17 568.52-22.17ZM586.39-8.62L586.39-24.92 590.2-24.92 590.2-8.75Q590.2-5.69 591.61-4.2 593.01-2.7 595.94-2.7L595.94-2.7Q599.86-2.7 601.65-4.85 603.45-7 603.45-11.83L603.45-11.83 603.45-24.92 607.24-24.92 607.24 0 604.13 0 603.58-3.34 603.37-3.34Q602.21-1.52 600.16-0.53 598.11 0.46 595.46 0.46L595.46 0.46Q590.86 0.46 588.62-1.73 586.39-3.92 586.39-8.62L586.39-8.62ZM626.6-25.38L626.6-25.38Q628.32-25.38 629.58-25.13L629.58-25.13 629.08-21.61Q627.59-21.94 626.35-21.94L626.35-21.94Q623.31-21.94 621.17-19.49 619.02-17.04 619.02-13.37L619.02-13.37 619.02 0 615.23 0 615.23-24.92 618.36-24.92 618.79-20.32 618.97-20.32Q620.36-22.78 622.32-24.08 624.28-25.38 626.6-25.38ZM658.22 0.46L658.22 0.46Q652.68 0.46 649.47-2.91L649.47-2.91Q646.29-6.27 646.29-12.29 646.29-18.3 649.24-21.84L649.24-21.84Q652.25-25.38 657.09-25.38 661.93-25.38 664.66-22.3 667.39-19.21 667.39-14.18L667.39-14.18 667.39-11.78 650.21-11.78Q650.33-7.41 652.43-5.12 654.53-2.83 658.48-2.83 662.44-2.83 666.31-4.52L666.31-4.52 666.31-1.16Q664.36-0.3 662.54 0.08 660.72 0.46 658.22 0.46ZM650.31-14.86L663.35-14.86Q663.35-18.43 661.76-20.32 660.17-22.22 657.19-22.22 654.22-22.22 652.42-20.27 650.61-18.33 650.31-14.86L650.31-14.86ZM674.04 0L669.77 0 678.89-12.77 670.22-24.92 674.52-24.92 681.09-15.37 687.64-24.92 691.91-24.92 683.24-12.77 692.37 0 688.09 0 681.09-10.11 674.04 0ZM713.51-5.31Q715.34-7.91 715.34-12.54 715.34-17.16 713.52-19.67 711.7-22.17 708.37-22.17L708.37-22.17Q704.57-22.17 702.85-20.07 701.14-17.97 701.09-13.32L701.09-13.32 701.09-12.49Q701.09-7.23 702.83-4.97 704.57-2.7 708.44-2.7L708.44-2.7Q711.68-2.7 713.51-5.31ZM716.56-21.99Q719.26-18.6 719.26-12.46 719.26-6.32 716.52-2.93 713.77 0.46 708.76 0.46 703.74 0.46 701.09-3.21L701.09-3.21 700.81-3.21Q701.09-0.91 701.09 0.94L701.09 0.94 701.09 11.2 697.29 11.2 697.29-24.92 700.38-24.92 700.91-21.51 701.09-21.51Q703.82-25.38 708.83-25.38 713.85-25.38 716.56-21.99ZM736.37 0.46L736.37 0.46Q730.84 0.46 727.62-2.91L727.62-2.91Q724.44-6.27 724.44-12.29 724.44-18.3 727.4-21.84L727.4-21.84Q730.41-25.38 735.25-25.38 740.09-25.38 742.82-22.3 745.55-19.21 745.55-14.18L745.55-14.18 745.55-11.78 728.36-11.78Q728.48-7.41 730.58-5.12 732.68-2.83 736.64-2.83 740.59-2.83 744.46-4.52L744.46-4.52 744.46-1.16Q742.51-0.3 740.69 0.08 738.87 0.46 736.37 0.46ZM728.46-14.86L741.5-14.86Q741.5-18.43 739.91-20.32 738.32-22.22 735.35-22.22 732.38-22.22 730.57-20.27 728.76-18.33 728.46-14.86L728.46-14.86ZM761.95 0.46L761.95 0.46Q756.52 0.46 753.53-2.88L753.53-2.88Q750.57-6.22 750.57-12.37 750.57-18.53 753.58-21.97L753.58-21.97Q756.62-25.38 762.18-25.38L762.18-25.38Q764-25.38 765.79-25 767.59-24.62 768.6-24.09L768.6-24.09 767.44-20.88Q764.63-22.04 762.1-22.04L762.1-22.04Q754.49-22.04 754.49-12.36L754.49-12.36Q754.49-7.74 756.36-5.28 758.23-2.83 761.85-2.83L761.85-2.83Q764.93-2.83 768.24-4.2L768.24-4.2 768.24-0.83Q765.74 0.46 761.95 0.46ZM778.2-21.99L778.2-7.33Q778.2-5.08 779.25-3.87 780.3-2.65 782.13-2.65 783.96-2.65 785.61-3.11L785.61-3.11 785.61-0.23Q785.03 0.05 783.77 0.25 782.52 0.46 781.64 0.46L781.64 0.46Q774.41 0.46 774.41-7.15L774.41-7.15 774.41-21.99 770.85-21.99 770.85-23.81 774.41-25.38 776-30.71 778.2-30.71 778.2-24.92 785.43-24.92 785.43-21.99 778.2-21.99ZM792.68-6.85L792.68-6.85Q792.68-4.83 793.92-3.74 795.16-2.65 797.38-2.65L797.38-2.65Q800.95-2.65 802.95-4.59 804.94-6.52 804.94-10.01L804.94-10.01 804.94-12.26 801.18-12.11Q796.68-11.93 794.68-10.69 792.68-9.45 792.68-6.85ZM808.73-17.01L808.73 0 805.93 0 805.17-3.54 804.99-3.54Q803.12-1.21 801.28-0.38 799.43 0.46 796.65 0.46L796.65 0.46Q792.91 0.46 790.83-1.47 788.74-3.39 788.74-6.9L788.74-6.9Q788.74-14.43 800.8-14.81L800.8-14.81 805.04-14.94 805.04-16.48Q805.04-19.46 803.78-20.84 802.52-22.22 799.57-22.22 796.63-22.22 792.68-20.32L792.68-20.32 791.52-23.21Q795.46-25.35 799.96-25.35 804.46-25.35 806.6-23.36 808.73-21.36 808.73-17.01L808.73-17.01ZM820.56-21.99L820.56-7.33Q820.56-5.08 821.61-3.87 822.66-2.65 824.49-2.65 826.33-2.65 827.97-3.11L827.97-3.11 827.97-0.23Q827.39 0.05 826.14 0.25 824.88 0.46 824 0.46L824 0.46Q816.77 0.46 816.77-7.15L816.77-7.15 816.77-21.99 813.21-21.99 813.21-23.81 816.77-25.38 818.36-30.71 820.56-30.71 820.56-24.92 827.79-24.92 827.79-21.99 820.56-21.99ZM836.46-29.82Q835.83-29.17 834.84-29.17 833.86-29.17 833.25-29.82 832.64-30.46 832.64-31.7 832.64-32.94 833.25-33.57 833.86-34.2 834.84-34.2 835.83-34.2 836.46-33.56 837.09-32.91 837.09-31.69 837.09-30.46 836.46-29.82ZM832.95-24.92L836.74-24.92 836.74 0 832.95 0 832.95-24.92ZM846.4-21.99Q849.48-25.38 854.78-25.38 860.09-25.38 863.18-21.9 866.26-18.43 866.26-12.42 866.26-6.42 863.18-2.96L863.18-2.96Q860.09 0.46 854.71 0.46L854.71 0.46Q849.63 0.51 846.44-3.06 843.26-6.62 843.33-12.49L843.33-12.49Q843.33-18.6 846.4-21.99ZM854.73-22.17L854.73-22.17Q847.25-22.17 847.25-12.49L847.25-12.49Q847.25-7.71 849.16-5.21 851.07-2.7 854.78-2.7 858.5-2.7 860.42-5.19 862.34-7.68 862.34-12.47 862.34-17.26 860.42-19.72 858.5-22.17 854.73-22.17ZM893.71-16.25L893.71 0 889.92 0 889.92-16.13Q889.92-19.21 888.53-20.69 887.14-22.17 884.2-22.17L884.2-22.17Q880.29-22.17 878.47-20.06 876.65-17.95 876.65-13.07L876.65-13.07 876.65 0 872.85 0 872.85-24.92 875.94-24.92 876.55-21.51 876.72-21.51Q877.89-23.33 879.98-24.36 882.08-25.38 884.66-25.38L884.66-25.38Q889.21-25.38 891.46-23.18 893.71-20.98 893.71-16.25L893.71-16.25ZM917.54-6.8L917.54-6.8Q917.54-3.31 914.95-1.43 912.36 0.46 907.53 0.46 902.71 0.46 899.93-1.11L899.93-1.11 899.93-4.63Q903.82-2.65 907.76-2.65L907.76-2.65Q913.9-2.65 913.9-6.47L913.9-6.47Q913.9-7.94 912.61-8.99 911.33-10.04 907.81-11.36 904.3-12.69 902.76-13.68L902.76-13.68Q899.85-15.65 899.85-18.76 899.85-21.87 902.33-23.62 904.8-25.38 909.01-25.38 913.22-25.38 917.01-23.76L917.01-23.76 915.67-20.68Q911.96-22.22 909.09-22.22 906.22-22.22 904.84-21.4 903.46-20.58 903.46-19.06L903.46-19.06Q903.46-18.1 903.96-17.38 904.45-16.66 905.59-16.01 906.73-15.37 909.99-14.18L909.99-14.18Q914.43-12.54 915.99-10.91 917.54-9.28 917.54-6.8Z" opacity="1" transform="matrix(1,0,0,1,0,0)" fill="#023a49" class="undefined-text-1" data-fill-palette-color="secondary" id="text-1"></path></svg></g></svg></g></svg></g></svg></g></svg></g></svg></g></svg></g></svg></g><defs></defs></svg><rect width="395.52" height="247.2" fill="none" stroke="none" visibility="hidden"></rect></g></svg></g></svg>