<?xml version="1.0" encoding="utf-8"?>
<!-- Generator: Adobe Illustrator 23.0.0, SVG Export Plug-In . SVG Version: 6.00 Build 0)  -->
<svg version="1.1" id="Слой_1" xmlns="http://www.w3.org/2000/svg" xmlns:xlink="http://www.w3.org/1999/xlink" x="0px" y="0px"
	 width="720px" height="720px" viewBox="0 0 720 720" style="enable-background:new 0 0 720 720;" xml:space="preserve">
<style type="text/css">
	.st0{fill:#EEC3B0;}
	.st1{fill:#AAC1A3;}
	.st2{fill:#6E7696;}
	.st3{fill:rgba(255,255,255);}
</style>
<path class="st0" d="M792.4,1108.8c13.7,0.4,29,2.7,44.8,6.5c-8.4-10.7-17.2-22.2-26.5-34.8c-11-16.5-21.9-33.4-27.4-53.1
	c-2.7-7.8-3.1-16.1-3.6-24.3c-0.5-5.5-1-11.1-1.4-16.7c0-2.1,1.1-3.8,3.2-5c1.1-2.3,2.7-3.9,4.7-4.9c31.2-13.5,65.6-1.8,97,5.8
	c2,0.6,4,1.2,6,1.7c-4.1-5-8.4-10-12.8-14.8c-2.4-3.8-4.9-7.6-7.3-11.4c-0.3-3.4-0.5-6.8-0.8-10.1c3.6-4.3,6-9.9,12.1-10
	c3.7-1.7,7.5-2.9,11.4-3.5c-4.7-8.2-8.6-17-11.4-26.3c-2.1-6.2-4.1-12.4-6.1-18.7c-0.3-1.4-0.5-2.9-0.7-4.4
	c-1.8-2.1-3.6-4.2-5.5-6.3c-2.4-3.8-4.9-7.6-7.3-11.4c-0.3-3.4-0.5-6.8-0.8-10.1c5.8-9.9,16.3-13.3,26.7-13
	c17.8-2.8,35.4,2.2,52.9,5.6c-2.3-6.1-4.3-12.4-6.8-18.4c-12.7-25.5,4-37.2,27.1-31.5c19.3,2.9,37.3,11.1,54.4,20.8
	c3.6-15.4,6.5-31.8,9.9-37.8c8.9-15.6,31.7-18.4,56.1-15.9c15-3.1,35.2,3.2,53.9,11.7c6,1.9,11.3,3.7,15.5,5.2
	c37.8,12.4,82.9,0.3,115.7,25.1c5.5,8.4,29.2,25.1,44,37.2c25.2,20.1,48.8,42.3,72,65c22.1,21.6,37.4,70.5,53.5,98.2
	c2.5,4.4,6.6,8.5,7,13.8c0.3,3.8,0.6,7.6,0.9,11.3c-8.3,14.6-24.8,14.2-38.8,15.4c-9.9-0.3-20.5-1.5-31.6-3.5c1.5,5,3,9.9,4.4,14.6
	c1.2,4.4,3.8,8.8,3,13.5c-0.1,0.4-0.2,0.9-0.2,1.3c1.4,1.9,2.8,3.9,4.3,5.9c12.1,18.5,24.2,37.4,30.1,59.5c3,8.7,3.4,18,4,27.3
	c0.6,6.2,1.2,12.4,1.6,18.7c-0.1,2.4-1.2,4.3-3.5,5.6c-1.2,2.6-3,4.4-5.2,5.5c-34.3,15.1-72.2,2.1-106.7-6.5
	c-2.2-0.7-4.4-1.3-6.6-1.9c4.6,5.6,9.2,11.2,14,16.5c2.7,4.3,5.4,8.5,8,12.8c0.3,3.8,0.6,7.6,0.9,11.3c-3.9,4.8-6.6,11.1-13.3,11.2
	c-4.1,1.9-8.2,3.2-12.5,3.9c5.1,9.2,9.4,19,12.5,29.5c2.3,7,4.6,13.9,6.7,21c0.3,1.6,0.5,3.2,0.7,4.9c2,2.4,4,4.7,6,7.1
	c2.7,4.3,5.4,8.5,8,12.8c0.3,3.8,0.6,7.6,0.9,11.3c-6.4,11.1-17.9,14.9-29.4,14.5c-19.5,3.1-39-2.5-58.3-6.2
	c2.6,6.8,4.8,13.9,7.5,20.6c13.9,28.6-4.4,41.7-29.8,35.3c-26.3-4.1-50.5-17.1-73.1-31.2c-5.5-3.2-10.9-6.6-16.1-10.2
	c-7.5,5.3-18.4,7.3-30.5,7.3c6.6,26.8,10.3,53.2,2.1,63.2c-26.1,26.9-96.7-15.3-121.3-32.2c-33.6-21.5-85.4-30.7-110.9-63
	c-4.2-5.8-52.4-89-65.3-107.5c-0.3-0.4-0.6-0.8-0.9-1.2c0,0,0-0.1-0.1-0.1c0,0,0,0,0,0c-15.2-21.8-26.9-55.7-39.2-76.3
	c-2.2-3.9-6-7.6-6.3-12.3c-0.3-3.4-0.5-6.8-0.8-10.1C764.7,1109.5,779.7,1109.9,792.4,1108.8z"/>
<path class="st1" d="M667.2,1133.9c17.9-17,16-38.8-6.6-50.5c-10.8-7.1-23.3-10.8-34.5-16.8c-9.3-6.4-18.7-12.6-28.3-18.6
	c19.1-15.1,37.4-31.2,53.8-49.2c6.1-4.8,9.1-10.7,9-17.9c-13.3-9-25.2-19.6-34.3-32.9c-4.2-5.7-9.8-11.1-13.1-17.5
	c8.9-9.7,17.8-23.4,9.2-34.4c-10.3-8.4-21-16.5-31.4-24.8c-12.1-6.6-25.2-13.4-39.1-15c-2.3,0.7-4.6,1.5-6.8,2.3
	c-0.3-2.1-0.6-4.2-0.9-6.2c-2.2-18-23.6-22.9-38.4-26.2c-10.5-3-21-2.4-31,1.9c-11.6,3.2-22.4,8.4-33.1,13.7c-0.3,0-0.6,0-0.8,0.1
	c-0.8-0.5-1.6-1-2.4-1.6c-7.3-6.4-7.6-17.3-6.5-26.4c1.1-7.5,2-15.7-4.2-21.2c-3-2.6-4.4-3.3-9.3-3.3c-3.9-0.2-7.8,0.1-11.7,0.9
	c-19.3,4-37.7,10.1-55.6,17.8c19-18.2,33.6-35.8,17.2-34.3c-14.1,3.9-28,8.5-42,12.7c-11.7,3.6-23.9,6-34.5,12.2
	c-54,27.5-103.6,64.2-149,104.2c-12.2,10.9-24.8,22.3-32.9,36.6c-2.6,9.1-1.3,18.4-1,27.7c-6.8,6.1-13.5,12.4-19.7,19.1
	c-3.5,2.9-6.4,6.3-9.1,9.8c-6.8,6.3-13.4,12.7-19.5,19.8c-3.6,5.6-8.5,10.6-11.3,16.7c-1.7,4.8-2,10-2.6,15c-1.2,12,6.4,23,6.9,34.6
	c-1.9,5.4-5.2,10.2-8,15.1c-5.3,9.1-10.2,19-9.7,29.8c5,17.9,21.4,31.1,38,37.9c8.3,3.7,30.4,10,40.8,19.5
	c-13.9,12.6-27.2,26-37.8,41.5c-7.1,16.8-3.6,37.5,7.8,51.7c5.1,7,13.1,11.1,18.8,17.3c1,6.2-0.6,13.1,5.1,17.5
	c10.1,9.7,24.4,12.3,36.4,18.7c11.2,8.3,22.5,16.7,33.1,25.8c4.6,4.6,10.4,8.3,13.2,14.3c1.5,19.3,22.2,27.9,37,36.3
	c11.4,6.9,21.3,18.9,35.6,18.4c11.5-3.3,22.4-8,32.9-13.6c4.3,0.9,8.7,2.3,22.9,2.8c16.7,0.9,8.5-0.7,29.9,8
	c19.9,7.7,39.1-5.2,56.7-13.4c18.3-10.1,36.1-21,53.4-32.6c13.7-9.4,50.1-34.8,81.4-60.9c26.2-18.4,51.8-37.8,75.4-59.4
	c9.3-7.8,17.6-16.7,25.7-25.7c3-3.1,6-6.3,8.9-9.5c12.5-14.3,14.1-26.2,5-43.2c-3.8-7.3-10.6-12.9-12.4-21.2
	c-0.1-0.2-0.1-0.3-0.1-0.5C651.9,1149.7,659.8,1142,667.2,1133.9z"/>
<path class="st2" d="M1432.6,220c-3.1-6.3-12.9-7.1-19.2-6.9c-15.6-1.1-67.1,12.5-81.7,30.8c-1.3-23.8-8.6-44.4-11.7-67.8
	c-4-21.9-16.9-40.7-22.7-62.1c-8.1-31-75.5-5.3-93.3,6.4c-1.4,0.8-2.7,1.7-4,2.5c-0.5-2.5-0.9-5-1.1-7.6c-0.8-6.6-1.5-13.5-4.2-19.7
	c-4.5-7.5-11.2-13.6-18.4-18.4c-30.2-18.4-91.8,4.1-116,26.5c-12.9,12.7-14.3,31.3-15.5,48.4c-0.2,2.5-0.2,4.9-0.3,7.4
	c0-0.1,0-0.3-0.1-0.4c-0.5-19.6-0.9-39.2-3.9-58.6c-1.5-9.5-1.4-20.2-9.6-26.7c-18.2-8.2-39.5-1.1-57.8,3.7
	c-17.4,5.9-36.1,13.9-48.5,28.2c-17.3,23.7-22.4,52.3-24.5,81.3c-23.7-6.2-49.5,3.5-71.2,13c-11,5-21.9,11.6-28,22.3
	c-5.1,10.3-8.4,21.4-12.3,32.2c-8.3,20.6-10.9,42.3-11.7,64.3c-0.4,8.1-3.4,32.9-5,55c0.6-11.7-0.8,10-1.3,14.7
	c-0.3,4.1-0.8,20-0.7,21.7c-0.6,5.9-1.4,11.7-2.2,17.5c-3.4,5.7,4.3,11.3,9.5,11.2c13.2,1.9,33.1-1.1,51.6-7.4
	c2.8,24.6,6.5,49.2,11.6,73.4c4.9,18.6,9.4,39.2,22.8,53.7c9.6,8.3,23.3,6.9,35.1,5.7c21.9-3.7,51.3-12,70.6-28.1
	c1.7,13.7,4.2,27.3,8.8,40.4c5.6,14.9,11.4,29.7,17.2,44.6c3.8,9,8.1,18.3,15.8,24.6c29,12.8,73.1-4.3,98.4-20.3
	c9.8-6.9,15.5-16.5,21.8-26.3c0.8-1.5,1.7-3,2.7-4.5c3.5,7.7,7.9,15,13.6,21.8c8.2,7.4,20.9,7.4,31.4,6.6
	c34-2.8,66.8-17.2,92.9-39.1c7.1-5.7,14.6-11.1,19.2-19.2c3.6-7,3.1-15.3,4.5-22.9c2.2-16,4.1-32,5.7-48c6.8,1.2,14,0.9,20.8-0.1
	c24.1-3.6,50.1-11.9,69.3-27.6c12.2-10.1,20.5-25,25.1-40c3.9-27.3,3.4-35.9,6.2-55.4c6.8-46.4,10.3-93.5,10.6-140.4
	C1432.8,226.7,1432.7,223.3,1432.6,220z"/>
<path class="st3" d="M670,307.9c0.7-16.7-12.3-122.5-42.1-115.8c-5-23.1-12.5-45.8-26.5-65.8c-5.5-9.2-13.1-17.1-23.9-21.5
	c-3-2.2-7.1-0.6-9.5,1.8c-6.7,2.3-9.7,7.6-12.6,13.1c-4.8,6.6-7.5,14.1-9.9,21.6c-7.3-6-16.5-8.1-26.8-0.8
	c-4.1,6.3-7.3,12.8-9.9,19.6c-2.5-4.7-5.1-9.3-7.9-13.8c-7.6-12.7-14.2-27.2-30-32.9c-3.5-1.8-7.6-2.8-11.6-2.5
	c-4.4,0.2-7.8,3.4-11.6,5.1c-5.1,3.8-6.8,10.4-10.4,15.3c-2.5,5.8-4.6,11.7-6.5,17.6c-4.4,4.7-9.2,9.1-12.8,14.3
	c-12.6,18-18.8,38.4-22.4,59.4c-0.8-16-1.9-31.9-3-47.9c-1.4-23.1-4.8-46.1-7.5-69.1c-2.5-19-3.7-38.5-10.7-56.7
	c-2.2-9.3-10.3-30.5-22.7-24c-6.4,2.6-10.2,7.4-11.4,14.4c-2.1,6.4-4.2,12.7-6.2,19c-3.7,16.1-6.1,32.5-7.5,49
	c-15.1-27.5-34.7-55.4-46.6-40.8c-14.4,20.4-20,44.2-23.4,68c-2.1,15-3.3,30-3.9,45.1c-1.1,1.7-2,3.4-3,5.1
	c-4.8,7.2-7.7,15.2-9.9,23.5c-2.6-7.2-5.2-14.5-7.8-21.7c-0.2-0.6-0.4-1.2-0.6-1.8c-3.3-10.9-16.4-55.9-32.4-46.6
	c-13.1,4.9-12.6,22.7-17.6,33.5c-3.5,14.7-5.8,29.6-7.2,44.5c-1.7,0.9-3.3,1.8-4.9,2.8c-0.1-0.2-0.2-0.3-0.3-0.4
	c-4.8-7.2-10-14.1-14.9-21.3c-0.3-0.6-0.6-1.1-0.8-1.6c-7.8-14.6-18.1-55.5-33.5-46.2c-2.2-2-4.3-4.1-6.5-6
	c-9-10.2-15.4-12-24.3,0.3c-6.3,8.2-9.9,17.2-12.4,26.7c-0.3-0.2-0.7-0.3-1-0.4c-0.9-0.1-1.7,0.1-2.5,0.5
	c-9.3,3.2-12.2,10.9-16.6,18.3c-3.2,8.9-6.3,17.9-8.1,27.2c-0.6,2.3-1.2,4.6-1.9,6.9c-28.9,56.6-26,159.6-10.4,220
	c9.6,36.4,29.5,69.4,45.8,103.5c6.4,11.6,10.5,24.3,17.4,35.6c2.3,6.4,8.2,11,15.2,12.7c2.2-0.1,4.2-0.9,5.8-2.4
	c2.3-0.7,4-1.9,5.4-3.5c8.1-10.5,11.6-22.8,14.9-35c3.8,0,7.7,1.3,11,3.1c1.3,0.6,2.7,1.3,4,1.9c9,4.5,17.9,10.7,28.1,12.1
	c6.8,46.8,19.5,94.9,44.7,74.4c16.2-18.8,22.1-43.5,27.8-66.4c5.7-26.2,3.4-21.6,13-63.3c3.1,7,6,14,8.6,21.2c0.7,2.2,1.3,4.4,2,6.6
	c4.7,15.8,6.9,32.5,17.6,46.1c2.7,1.5,5.5,2.9,8.2,4.4c7.8-3.6,14.3-7.4,15.5-16.6c2.4-6.1,4.3-12.3,6-18.5c1.1,3.5,2.2,7,3.5,10.5
	c2.6,6,6.4,11.6,10.1,17.1c5.1,2.3,9.4,7.1,14.6,2.6c1.8-0.7,3.3-1.6,4.7-2.5c2.2,0.3,4.3,0.9,6.3,1.6c0.3,0.4,0.7,0.7,1.1,1.1
	c4.9,18.3,8.9,37.6,22.4,52.1c3.6,1.4,7.1,4.8,10.9,4.9c15.5-5.3,22.3-19.2,28.7-31.8c4.4-11.1,7.8-22.4,10.6-33.8
	c2.2,3.8,4.6,7.4,8.3,10c3.3,1.7,6.5,3.4,9.7,5.1c12.2-1.4,18.4-12.5,22.7-21.9c8-21.9,12.8-44.3,15.6-67.1c3.8,2,7.7,3.8,11.9,5.1
	c9.4,1.1,18.5,3.4,26.9,7.4c3.5,1.2,6.6,3.8,10.2,4.6c1.7,8.5,4.2,16.9,7.5,25c1.2,9.1,7.8,13.1,15.5,16.6c2.7-1.5,5.5-2.9,8.2-4.4
	c15.3-24.5,21-59.8,22.2-96.8c1.5,2.1,3.2,4,5.6,5.4c2.4,1,4.9,2.5,7.5,4c2.8,7.5,6.4,14.6,11.6,21.2c22.3,16.9,31.8-25.4,36.3-39.1
	C670.5,406.9,673.3,357.2,670,307.9z"/>
</svg>
