<?xml version="1.0" encoding="UTF-8"?>
<!DOCTYPE svg PUBLIC "-//W3C//DTD SVG 1.1//EN" "http://www.w3.org/Graphics/SVG/1.1/DTD/svg11.dtd">
<svg version="1.1" xmlns="http://www.w3.org/2000/svg" xmlns:xlink="http://www.w3.org/1999/xlink" x="0" y="0" width="896" height="900" viewBox="0, 0, 896, 900">
  <g id="Layer_1">
    <path d="M421.06,585.182 C372.696,593.056 397.232,723.504 373.772,780.892 C361.464,810.996 302.208,829.988 284.376,789.186 C251.486,713.958 384.352,616.714 384.352,589.984 C384.352,563.256 365.452,553.066 347.486,554.504 C284.048,559.572 270.22,643.658 230.516,671.022 C168.232,713.958 101.922,632.414 132.826,585.314 C170.074,528.544 268.324,572.616 320.914,526.39 C336.962,512.288 366.382,481.542 319.376,452.664 C260.706,416.62 221.488,480.634 151.656,464.954 C94.198,452.052 87.742,356.358 153.716,347.832 C204.056,341.324 235.208,395.844 292.65,417.642 C369.144,446.672 391.896,381.05 382.046,348.522 C365.764,294.76 300.634,280.632 261.93,244.38 C226.326,211.034 263.986,141.134 336.888,159.59 C385.426,171.88 392.186,209.972 382.354,268.956 C372.518,327.94 423.518,378.322 446.554,376.172 C513.03,369.962 515.526,235.046 462.554,152.218 C412.458,73.884 471.632,3.524 537.8,4.758 C636.416,6.602 651.776,101.53 622.588,163.278 C598.894,213.412 469.324,334.472 508.612,393.068 C543.636,445.296 589.104,374.94 594.94,329.168 C599.66,292.154 600.42,264.926 631.8,257.894 C673.276,248.604 699.082,299.372 664.984,333.776 C646.624,352.302 557.768,388.592 571.592,432.08 C578.44,453.618 617.554,446.298 641.018,439.302 C707.992,419.332 710.6,357.74 763.346,361.564 C813.538,365.208 826.726,430.086 795.734,450.476 C751.038,479.89 596.436,424.674 576.046,489.066 C567.292,516.718 623.424,543.186 655.152,559.572 C711.062,588.452 760.834,578.62 779.264,621.628 C807.28,686.992 723.046,731.914 692.018,667.092 C663.164,606.802 624.164,538.208 566.366,539.298 C536.48,539.86 521.374,562.334 548.41,595.516 C581.932,636.652 637.948,690.442 635.496,730.992 C633.132,770.022 581.124,795.362 554.394,748.196 C533.502,711.332 590.644,654.806 519.984,590.906 C499.914,572.756 471.906,609.338 491.726,637.6 C505.726,657.57 504.018,688.264 491.256,695.97 C447.022,722.7 411.54,675.878 445.026,642.518 C470.272,617.368 462.186,578.48 421.06,585.182" fill="#0B0B09"/>
    <path d="M732.26,218.574 C732.26,236.9 717.41,251.754 699.082,251.754 C680.756,251.754 665.906,236.9 665.906,218.574 C665.906,200.25 680.756,185.396 699.082,185.396 C717.41,185.396 732.26,200.25 732.26,218.574" fill="#0B0B09"/>
    <path d="M756.222,154.06 C756.222,161.696 750.034,167.888 742.398,167.888 C734.764,167.888 728.574,161.696 728.574,154.06 C728.574,146.426 734.764,140.238 742.398,140.238 C750.034,140.238 756.222,146.426 756.222,154.06" fill="#0B0B09"/>
    <path d="M742.398,315.652 C742.398,323.288 736.21,329.476 728.574,329.476 C720.936,329.476 714.75,323.288 714.75,315.652 C714.75,308.018 720.936,301.826 728.574,301.826 C736.21,301.826 742.398,308.018 742.398,315.652" fill="#0B0B09"/>
    <path d="M318.61,348.83 C318.61,356.466 312.422,362.654 304.782,362.654 C297.15,362.654 290.962,356.466 290.962,348.83 C290.962,341.196 297.15,335.004 304.782,335.004 C312.422,335.004 318.61,341.196 318.61,348.83" fill="#0B0B09"/>
    <path d="M285.892,497.124 C285.892,504.76 279.706,510.946 272.064,510.946 C264.432,510.946 258.242,504.76 258.242,497.124 C258.242,489.486 264.432,483.302 272.064,483.302 C279.706,483.302 285.892,489.486 285.892,497.124" fill="#0B0B09"/>
    <path d="M92.898,530.302 C92.898,537.936 86.708,544.126 79.072,544.126 C71.44,544.126 65.25,537.936 65.25,530.302 C65.25,522.666 71.44,516.478 79.072,516.478 C86.708,516.478 92.898,522.666 92.898,530.302" fill="#0B0B09"/>
    <path d="M120.208,248.604 C120.208,256.24 114.02,262.43 106.38,262.43 C98.746,262.43 92.558,256.24 92.558,248.604 C92.558,240.968 98.746,234.78 106.38,234.78 C114.02,234.78 120.208,240.968 120.208,248.604" fill="#0B0B09"/>
    <path d="M891.702,367.876 C891.702,385.18 877.67,399.212 860.362,399.212 C843.062,399.212 829.03,385.18 829.03,367.876 C829.03,350.572 843.062,336.542 860.362,336.542 C877.67,336.542 891.702,350.572 891.702,367.876" fill="#0B0B09"/>
    <path d="M375.09,860.018 C375.09,879.87 358.998,895.962 339.15,895.962 C319.298,895.962 303.206,879.87 303.206,860.018 C303.206,840.166 319.298,824.076 339.15,824.076 C358.998,824.076 375.09,840.166 375.09,860.018" fill="#0B0B09"/>
    <path d="M479.25,740.21 C479.25,749.88 471.41,757.718 461.738,757.718 C452.066,757.718 444.23,749.88 444.23,740.21 C444.23,730.54 452.066,722.7 461.738,722.7 C471.41,722.7 479.25,730.54 479.25,740.21" fill="#0B0B09"/>
    <path d="M78.838,367.876 C78.838,388.234 62.332,404.74 41.974,404.74 C21.618,404.74 5.112,388.234 5.112,367.876 C5.112,347.516 21.618,331.01 41.974,331.01 C62.332,331.01 78.838,347.516 78.838,367.876" fill="#0B0B09"/>
    <path d="M257.018,131.92 C257.018,150.244 242.162,165.098 223.836,165.098 C205.518,165.098 190.662,150.244 190.662,131.92 C190.662,113.594 205.518,98.744 223.836,98.744 C242.162,98.744 257.018,113.594 257.018,131.92" fill="#0B0B09"/>
    <path d="M391.88,67.556 C391.88,85.882 377.024,100.738 358.702,100.738 C340.376,100.738 325.522,85.882 325.522,67.556 C325.522,49.232 340.376,34.382 358.702,34.382 C377.024,34.382 391.88,49.232 391.88,67.556" fill="#0B0B09"/>
    <path d="M862.21,530.302 C862.21,548.626 847.354,563.478 829.03,563.478 C810.706,563.478 795.85,548.626 795.85,530.302 C795.85,511.976 810.706,497.124 829.03,497.124 C847.354,497.124 862.21,511.976 862.21,530.302" fill="#0B0B09"/>
    <path d="M733.738,773.386 C733.738,787.912 721.964,799.684 707.436,799.684 C692.91,799.684 681.14,787.912 681.14,773.386 C681.14,758.86 692.91,747.088 707.436,747.088 C721.964,747.088 733.738,758.86 733.738,773.386" fill="#0B0B09"/>
    <path d="M545.604,833.478 C545.604,851.804 530.752,866.656 512.424,866.656 C494.104,866.656 479.25,851.804 479.25,833.478 C479.25,815.154 494.104,800.302 512.424,800.302 C530.752,800.302 545.604,815.154 545.604,833.478" fill="#0B0B09"/>
    <path d="M182.864,69.724 C182.864,82.62 172.414,93.07 159.516,93.07 C146.62,93.07 136.17,82.62 136.17,69.724 C136.17,56.83 146.62,46.38 159.516,46.38 C172.414,46.38 182.864,56.83 182.864,69.724" fill="#0B0B09"/>
    <path d="M129.524,685.386 C129.524,701.168 116.732,713.962 100.954,713.962 C85.176,713.962 72.384,701.168 72.384,685.386 C72.384,669.61 85.176,656.816 100.954,656.816 C116.732,656.816 129.524,669.61 129.524,685.386" fill="#0B0B09"/>
    <path d="M268.076,191.386 C268.076,165.898 345.268,144.23 370.918,190.924 C394.424,233.716 359.584,283.728 382.97,315.654 C341.496,276.636 350.264,180.99 268.076,191.386" fill="#171716"/>
    <path d="M364.998,270.646 C363.514,266.282 361.506,258.328 360.348,253.688 C349.792,211.242 322.906,189.114 286.43,182.402 C295.876,174.642 314.186,171.724 320.914,171.724 C336.124,171.724 353.322,177.134 362.922,194.612 C373.22,213.354 371.472,238.034 369.122,258.434 C368.762,261.554 366.006,267.098 364.998,270.646" fill="#60605D"/>
    <path d="M304.786,179.406 C326.818,175.718 354.406,179.304 362.848,206.902 C368.622,225.762 365.628,241.922 362.848,248.604 C361.464,215.586 359.312,190.466 304.786,179.406" fill="#F4F4F2"/>
    <path d="M168.462,663.024 C142.974,662.622 114.558,596.678 161.53,571.53 C194.314,553.974 262.926,573.628 313.388,539.986 C273.722,580.844 157.048,583.912 168.462,663.024" fill="#171716"/>
    <path d="M220.072,579.618 C177.468,589.508 164,612.834 156.71,649.198 C148.756,645.284 142.202,628.354 142.3,621.626 C142.506,608.896 146.298,588.478 163.932,579.158 C182.832,569.162 204.496,569.316 224.858,571.986 C227.968,572.394 224.732,578.536 220.072,579.618" fill="#60605D"/>
    <path d="M153.49,638.526 C142.65,625.024 148.116,587.836 175.84,579.826 C194.786,574.352 209.83,573.976 216.464,576.866 C183.596,574.84 157.482,590.906 153.49,638.526" fill="#F4F4F2"/>
    <path d="M803.652,424.636 C816.334,408.386 783.98,347.296 738.332,373.158 C713.496,387.23 696.084,417.182 672.05,434.542 C702.432,421.022 756.44,377.106 803.652,424.636" fill="#171716"/>
    <path d="M706.686,412.96 C734.542,391.162 771.332,393.99 797.916,407.862 C795.738,395.638 789.752,387.062 783.722,382.778 C774.308,376.098 758.64,372.714 741.592,379.488 C725.522,385.872 711.656,397.134 703,411.308 C701.678,413.47 703.64,415.34 706.686,412.96" fill="#60605D"/>
    <path d="M791.378,399.212 C786.764,382.392 759.89,375.438 737.496,384.662 C721.17,391.388 713.238,400.788 709.452,405.892 C728.588,389.516 749.464,376.802 791.378,399.212" fill="#F4F4F2"/>
    <path d="M748.85,686.064 C770.828,687.698 796.242,625.344 756.358,602.3 C722.742,582.872 674.64,584.322 648.624,562.106 C679.588,600.372 763.1,615.874 748.85,686.064" fill="#171716"/>
    <path d="M758.526,673.162 C763.652,666.02 768.578,652.728 769.01,646.924 C769.832,635.954 767.452,620.182 754.148,609.224 C740.866,598.278 711.526,591.326 698.928,591.368 C751.152,609.57 755.084,641.286 758.526,673.162" fill="#60605D"/>
    <path d="M761.178,659.836 C768.116,648.506 768.116,615.446 742.358,606.48 C747.582,612.218 763.018,624.696 761.178,659.836" fill="#F4F4F2"/>
    <path d="M491.718,45.082 C497.018,16.278 572.812,3.208 602.928,47.154 C630.21,86.968 616.964,147.196 583.788,191.896 C587.936,166.526 573.906,34.684 491.718,45.082" fill="#171716"/>
    <path d="M590.238,125.284 C588.752,120.92 586.746,112.968 585.588,108.326 C575.03,65.882 548.148,40.758 511.67,34.046 C520.35,28.746 539.042,27.132 545.772,27.132 C558.496,27.132 581.214,29.502 593.558,47.464 C608.76,69.58 602.624,106.05 590.238,125.284" fill="#60605D"/>
    <path d="M528.824,33.616 C550.858,29.926 580.87,31.264 592.332,57.754 C600.164,75.864 595.894,96.276 593.116,102.958 C591.734,69.938 586.734,43.676 528.824,33.616" fill="#F4F4F2"/>
    <path d="M416.362,371.938 C416.362,371.938 417.28,372.838 418.84,374.462 C419.222,374.872 419.644,375.326 420.11,375.816 C420.626,376.246 421.176,376.708 421.77,377.202 C422.952,378.188 424.222,379.32 425.812,380.342 C426.588,380.874 427.39,381.428 428.218,382.002 C429.096,382.486 430.006,382.992 430.944,383.51 C432.75,384.656 434.924,385.318 437.006,386.296 C439.218,386.934 441.468,387.772 443.85,388.092 C446.198,388.664 448.648,388.676 451.07,388.788 L454.69,388.552 C455.894,388.5 457.042,388.104 458.214,387.906 C459.398,387.72 460.506,387.33 461.592,386.918 C462.67,386.478 463.834,386.254 464.792,385.624 C465.792,385.082 466.776,384.55 467.738,384.03 C468.666,383.452 469.484,382.74 470.342,382.128 C472.12,380.966 473.35,379.356 474.722,378.086 C476.046,376.766 476.91,375.26 477.902,374.08 C478.916,372.9 479.448,371.654 480.014,370.7 C481.108,368.76 481.792,367.646 481.792,367.646 C481.792,367.646 481.42,368.866 480.666,371.004 C480.252,372.056 479.914,373.422 479.084,374.778 C478.288,376.144 477.62,377.874 476.37,379.412 C475.108,380.924 473.956,382.808 472.128,384.22 C471.252,384.968 470.416,385.818 469.444,386.542 C468.416,387.18 467.362,387.836 466.288,388.502 C465.252,389.244 463.988,389.582 462.808,390.13 C461.612,390.662 460.378,391.14 459.058,391.364 C457.76,391.618 456.468,392.058 455.128,392.148 L451.1,392.47 C448.42,392.318 445.722,392.236 443.16,391.58 C440.542,391.196 438.164,390.102 435.816,389.302 C433.592,388.178 431.37,387.232 429.542,385.868 C428.604,385.226 427.674,384.64 426.82,384.014 C426.014,383.314 425.246,382.636 424.502,381.986 C422.96,380.77 421.802,379.342 420.77,378.134 C420.25,377.534 419.768,376.972 419.324,376.448 C418.94,375.89 418.594,375.372 418.274,374.91 C417.03,373.038 416.362,371.938 416.362,371.938" fill="#90918D"/>
    <path d="M502.088,395.294 C502.088,395.294 502.492,396.372 503.104,398.274 C503.346,399.262 504.084,400.23 504.66,401.42 C505.182,402.622 506.342,403.754 507.218,405.118 C508.284,406.37 509.518,407.676 510.874,408.962 C512.316,410.182 513.792,411.488 515.534,412.586 C517.16,413.85 519.124,414.68 520.964,415.764 C522.948,416.552 524.894,417.568 527.014,418.032 C529.066,418.768 531.202,419.04 533.296,419.38 C534.346,419.504 535.394,419.446 536.432,419.524 L537.976,419.586 L539.484,419.406 C540.484,419.286 541.464,419.166 542.424,419.052 C543.362,418.792 544.272,418.534 545.166,418.286 C545.612,418.162 546.058,418.04 546.496,417.92 C546.902,417.726 547.3,417.538 547.694,417.35 C548.496,416.98 549.268,416.622 550.01,416.28 C551.488,415.554 552.628,414.538 553.8,413.828 C555.002,413.14 555.726,412.18 556.468,411.524 C557.89,410.152 558.764,409.378 558.764,409.378 C558.764,409.378 558.166,410.336 557.006,411.994 C556.39,412.788 555.804,413.928 554.722,414.85 C553.674,415.794 552.632,417.104 551.144,418.066 C549.608,418.926 548.108,420.294 546.116,420.872 C545.152,421.236 544.16,421.616 543.144,422.002 C542.096,422.272 540.996,422.412 539.89,422.63 L538.198,422.916 L536.476,422.954 C535.32,422.96 534.136,423.054 532.964,422.922 C530.628,422.598 528.238,422.33 525.964,421.562 C523.632,420.99 521.522,419.858 519.37,418.944 C517.354,417.756 515.334,416.648 513.632,415.208 C511.804,413.938 510.342,412.34 508.924,410.888 C507.57,409.384 506.44,407.806 505.492,406.324 C504.69,404.728 503.764,403.422 503.414,401.968 C503.014,400.572 502.464,399.426 502.41,398.422 C502.174,396.44 502.088,395.294 502.088,395.294" fill="#90918D"/>
    <path d="M569.12,460.254 C569.12,460.254 568.222,460.902 566.604,461.954 C565.788,462.466 564.78,463.084 563.832,463.996 C562.878,464.916 561.664,465.69 560.632,466.944 C559.558,468.132 558.32,469.324 557.324,470.856 C556.808,471.602 556.206,472.312 555.722,473.124 C555.26,473.952 554.788,474.794 554.312,475.65 C553.354,477.356 552.666,479.284 551.976,481.194 C551.686,482.176 551.402,483.17 551.112,484.164 C550.894,485.172 550.78,486.21 550.604,487.23 C550.37,488.244 550.358,489.282 550.316,490.308 C550.288,491.34 550.148,492.372 550.308,493.38 C550.39,494.396 550.472,495.402 550.55,496.392 C550.764,497.368 550.968,498.332 551.17,499.278 C551.3,500.254 551.768,501.096 552.042,501.986 C552.378,502.858 552.592,503.776 553.082,504.52 C553.928,506.092 554.702,507.614 555.746,508.806 C556.64,510.128 557.664,511.156 558.62,512.05 C559.088,512.508 559.53,512.942 559.936,513.34 C560.402,513.668 560.832,513.966 561.218,514.236 C562.776,515.324 563.666,516.01 563.666,516.01 C563.666,516.01 562.652,515.63 560.85,514.85 C560.402,514.65 559.906,514.424 559.366,514.182 C558.87,513.854 558.334,513.498 557.764,513.122 C557.19,512.736 556.578,512.324 555.928,511.89 C555.304,511.432 554.776,510.792 554.152,510.202 C553.578,509.572 552.846,509 552.316,508.238 C551.784,507.47 551.242,506.674 550.678,505.858 C550.05,505.06 549.706,504.094 549.242,503.16 C548.816,502.208 548.284,501.25 548.054,500.186 C547.764,499.134 547.472,498.068 547.17,496.986 C546.992,495.882 546.878,494.754 546.756,493.614 C546.566,492.48 546.686,491.332 546.69,490.176 C546.718,489.022 546.718,487.856 546.96,486.722 C547.17,485.582 547.324,484.436 547.592,483.318 C547.932,482.218 548.272,481.126 548.608,480.04 C548.882,478.93 549.496,477.962 549.94,476.944 C550.424,475.946 550.854,474.936 551.492,474.056 C552.082,473.156 552.66,472.276 553.23,471.406 C553.842,470.578 554.57,469.86 555.202,469.114 C556.42,467.564 557.932,466.456 559.23,465.368 C560.456,464.202 561.98,463.56 563.124,462.834 C564.288,462.082 565.378,461.668 566.276,461.32 C568.074,460.612 569.12,460.254 569.12,460.254" fill="#90918D"/>
    <path d="M393.568,585.182 C393.568,585.182 393.67,584.036 393.942,582.046 C394.078,581.056 394.318,579.84 394.21,578.478 C394.196,577.804 394.182,577.09 394.168,576.334 C394.196,575.588 394.156,574.804 393.982,573.982 C393.712,572.348 393.558,570.574 392.908,568.8 C392.49,566.968 391.606,565.206 390.764,563.366 C390.412,562.412 389.708,561.616 389.19,560.714 C388.636,559.832 388.09,558.934 387.372,558.136 C386.688,557.322 386.048,556.46 385.322,555.668 L382.96,553.432 C382.226,552.634 381.276,552.07 380.452,551.378 C379.606,550.694 378.748,550.046 377.794,549.53 C376.87,548.998 375.99,548.388 375.07,547.882 C374.124,547.418 373.18,546.968 372.258,546.522 C370.386,545.702 368.502,545.026 366.698,544.476 C364.864,544.062 363.132,543.49 361.47,543.358 C359.822,543.1 358.3,542.902 356.936,542.926 C355.568,542.878 354.36,542.808 353.388,542.982 C351.422,543.178 350.248,543.248 350.248,543.248 C350.248,543.248 351.32,542.866 353.27,542.276 C354.234,541.92 355.452,541.764 356.862,541.554 C357.564,541.462 358.318,541.312 359.118,541.244 C359.92,541.246 360.762,541.246 361.642,541.246 C363.424,541.154 365.308,541.506 367.326,541.796 C369.306,542.196 371.414,542.712 373.486,543.514 C374.516,543.946 375.562,544.378 376.622,544.818 C377.664,545.304 378.652,545.922 379.672,546.502 C380.712,547.05 381.674,547.738 382.616,548.468 C383.542,549.216 384.592,549.82 385.42,550.692 L387.976,553.214 C388.762,554.104 389.47,555.072 390.208,555.992 C390.988,556.884 391.56,557.916 392.118,558.936 C392.644,559.968 393.342,560.892 393.692,561.976 C394.09,563.028 394.478,564.064 394.862,565.076 C395.242,566.086 395.336,567.164 395.576,568.16 C396.116,570.15 396.042,572.114 396.084,573.882 C396.268,575.644 395.708,577.294 395.558,578.696 C395.396,580.132 394.954,581.254 394.636,582.212 C393.988,584.108 393.568,585.182 393.568,585.182" fill="#90918D"/>
    <path d="M522.566,584.592 C522.566,584.592 521.874,584.076 520.67,583.164 C520.084,582.694 519.37,582.126 518.554,581.468 C517.772,580.76 516.784,580.146 515.75,579.456 C514.686,578.806 513.674,577.934 512.414,577.304 C511.14,576.712 509.886,575.894 508.492,575.372 C507.07,574.938 505.66,574.242 504.14,574.112 C503.39,574.018 502.64,573.77 501.878,573.782 L499.604,573.84 C498.128,574.062 496.588,574.232 495.238,574.908 C493.816,575.4 492.55,576.23 491.332,577.034 C490.764,577.498 490.222,577.972 489.644,578.404 C489.116,578.882 488.656,579.414 488.166,579.9 C487.238,580.902 486.448,581.974 485.776,582.978 C485.14,584.02 484.554,584.986 484.186,585.92 C483.718,586.822 483.546,587.668 483.312,588.374 C483.078,589.08 483.12,589.652 483.038,590.052 C482.988,590.46 482.964,590.676 482.964,590.676 C482.964,590.676 482.92,590.468 482.838,590.072 C482.8,589.682 482.526,589.07 482.582,588.304 C482.624,587.54 482.546,586.552 482.838,585.512 C483,584.422 483.378,583.25 483.898,582.002 C484.424,580.772 485.084,579.442 486.01,578.184 C486.488,577.566 486.944,576.902 487.484,576.274 C488.078,575.694 488.686,575.104 489.304,574.5 C490.666,573.458 492.084,572.268 493.85,571.632 C495.502,570.78 497.42,570.46 499.276,570.17 L502.112,570.17 C503.054,570.192 503.944,570.478 504.85,570.628 C506.706,570.848 508.242,571.806 509.832,572.424 C511.39,573.122 512.64,574.2 513.928,575.018 C515.214,575.852 516.164,576.998 517.144,577.876 C519.16,579.638 520.242,581.47 521.186,582.654 C522.066,583.886 522.566,584.592 522.566,584.592" fill="#90918D"/>
    <path d="M348.868,508.424 C348.868,508.424 349.464,507.218 350.59,505.16 C351.104,504.112 351.972,502.932 352.51,501.412 C353.118,499.94 353.8,498.274 354.548,496.462 C355.058,494.562 355.81,492.57 356.292,490.404 C356.644,488.202 357.238,485.932 357.256,483.516 C357.558,481.118 357.25,478.658 357.114,476.162 C356.656,473.718 356.296,471.188 355.292,468.86 C354.914,467.654 354.488,466.466 353.84,465.384 C353.21,464.304 352.806,463.082 352,462.128 C351.282,461.118 350.564,460.116 349.856,459.128 C349.014,458.24 348.18,457.37 347.358,456.514 C346.598,455.582 345.53,455.028 344.678,454.258 C343.792,453.52 342.914,452.806 341.928,452.308 C340.974,451.754 340.046,451.208 339.15,450.68 C338.212,450.226 337.26,449.874 336.368,449.488 C334.604,448.642 332.856,448.214 331.316,447.772 C330.538,447.554 329.81,447.35 329.14,447.164 C328.452,447.062 327.814,446.968 327.24,446.886 C324.952,446.546 323.608,446.294 323.608,446.294 C323.608,446.294 324.94,446.218 327.302,446.174 C327.896,446.168 328.56,446.16 329.274,446.154 C329.982,446.234 330.754,446.326 331.57,446.422 C333.22,446.618 335.112,446.782 337.058,447.484 C338.046,447.79 339.098,448.052 340.148,448.426 C341.166,448.908 342.21,449.404 343.286,449.918 C344.404,450.38 345.416,451.066 346.452,451.79 C347.464,452.536 348.634,453.146 349.54,454.11 C350.498,455.018 351.464,455.942 352.448,456.88 C353.302,457.924 354.13,459.03 354.958,460.14 C355.862,461.21 356.36,462.546 357.078,463.752 C357.81,464.962 358.318,466.272 358.76,467.614 C359.826,470.238 360.204,473.05 360.642,475.768 C360.798,478.52 360.9,481.23 360.482,483.814 C360.352,486.434 359.5,488.828 358.936,491.122 C358.264,493.384 357.25,495.392 356.49,497.284 C355.542,499.114 354.514,500.708 353.674,502.126 C352.876,503.584 351.858,504.586 351.184,505.552 C349.736,507.396 348.868,508.424 348.868,508.424" fill="#90918D"/>
    <path d="M14.016,359.582 C14.016,359.582 14.194,358.21 15.018,355.926 C15.85,353.66 17.324,350.428 20.074,347.118 C22.748,343.79 26.882,340.386 32.186,338.476 C37.448,336.452 43.648,336.164 49.364,337.22 L51.436,337.678 L53.69,338.318 C55.104,338.814 56.5,339.368 57.83,340.064 C60.498,341.438 62.884,343.28 64.836,345.354 C66.832,347.396 68.242,349.772 69.33,352.042 C70.452,354.312 71.076,356.596 71.514,358.68 C72.374,362.868 72.252,366.368 72.036,368.76 C71.79,371.156 71.464,372.484 71.464,372.484 C71.464,372.484 71.196,371.136 70.614,368.862 C70.032,366.602 69.12,363.41 67.562,359.936 C66.79,358.194 65.788,356.426 64.626,354.704 C63.47,352.964 61.982,351.396 60.368,349.954 C58.744,348.506 56.814,347.37 54.74,346.458 C53.714,345.978 52.616,345.608 51.502,345.272 L49.902,344.836 L48.058,344.46 C43.258,343.618 38.466,343.656 34.168,344.722 C29.87,345.822 26.09,347.9 23.082,350.198 C20.102,352.512 17.828,354.904 16.312,356.672 C14.8,358.444 14.016,359.582 14.016,359.582" fill="#90918D"/>
    <path d="M79.072,679.424 C79.072,679.424 79.152,678.356 79.722,676.574 C80.334,674.826 81.284,672.236 83.366,669.652 C85.378,667.058 88.556,664.448 92.58,663.062 C94.574,662.356 96.736,661.906 98.932,661.796 C101.166,661.686 103.268,661.74 105.606,662.134 C107.55,662.492 109.918,663.08 111.938,664.032 C113.988,664.894 115.776,666.2 117.416,667.502 C119.002,668.878 120.348,670.402 121.414,671.978 C122.544,673.51 123.288,675.164 123.92,676.668 C124.542,678.188 124.876,679.662 125.104,680.964 C125.308,682.272 125.354,683.416 125.352,684.356 C125.292,685.304 125.196,686.03 125.05,686.512 C124.932,686.994 124.87,687.252 124.87,687.252 C124.87,687.252 124.866,686.99 124.858,686.492 C124.894,686.008 124.744,685.292 124.66,684.404 C124.486,683.518 124.234,682.462 123.824,681.29 C123.384,680.128 122.79,678.868 122.058,677.55 C121.292,676.252 120.402,674.888 119.278,673.614 C118.208,672.288 116.838,671.13 115.416,669.992 C113.922,668.946 112.322,667.932 110.53,667.276 C108.798,666.508 107.068,666.094 104.892,665.722 C103.096,665.478 101,665.282 99.116,665.372 C97.196,665.46 95.328,665.708 93.58,666.2 C90.084,667.184 87.154,669.052 84.972,671.108 C82.808,673.182 81.28,675.292 80.396,676.872 C79.49,678.446 79.072,679.424 79.072,679.424" fill="#90918D"/>
    <path d="M673.894,207.21 C673.894,207.21 674.234,206.09 675.238,204.306 C676.264,202.558 677.834,200.01 680.46,197.562 C683.038,195.1 686.656,192.67 691.042,191.334 C695.41,189.92 700.42,189.748 705.174,190.588 C710.136,191.492 714.538,194.072 717.82,197.192 C721.132,200.312 723.42,203.892 724.89,207.128 C726.366,210.374 726.944,213.328 727.062,215.38 C727.166,217.46 726.734,218.574 726.734,218.574 C726.734,218.574 726.862,217.398 726.382,215.478 C725.968,213.548 724.854,210.922 723.092,208.078 C721.324,205.252 718.89,202.154 715.722,199.572 C712.596,196.972 708.678,194.904 704.55,194.184 C702.42,193.86 700.23,193.638 698.108,193.708 C695.984,193.782 693.906,194.05 691.936,194.528 C688.002,195.51 684.566,197.302 681.866,199.25 C679.186,201.218 677.124,203.2 675.85,204.732 C674.554,206.248 673.894,207.21 673.894,207.21" fill="#90918D"/>
    <path d="M317.228,839.436 C317.228,839.436 318.28,838.61 320.324,837.442 C322.38,836.322 325.38,834.752 329.298,833.584 C333.196,832.416 338.05,831.61 343.288,832.276 C348.518,832.892 353.964,835.328 358.114,839.178 C359.186,840.13 360.128,841.086 361.048,842.25 C361.872,843.294 362.706,844.274 363.458,845.538 C365.096,847.9 366.074,850.416 366.908,852.926 C367.612,855.466 368.086,857.978 368.08,860.378 C368.162,862.768 367.934,865.024 367.502,867.038 C366.716,871.098 365.172,874.198 363.992,876.23 C363.384,877.24 362.836,877.992 362.422,878.468 C362.02,878.952 361.808,879.206 361.808,879.206 C361.808,879.206 362.488,878.042 363.322,875.902 C363.738,874.828 364.178,873.502 364.53,871.956 C364.876,870.406 365.184,868.65 365.344,866.73 C365.494,864.808 365.504,862.726 365.26,860.566 C365.052,858.394 364.468,856.182 363.768,853.95 C362.904,851.794 361.882,849.516 360.512,847.58 C359.934,846.59 359.046,845.566 358.208,844.546 C357.472,843.656 356.542,842.708 355.65,841.88 C352.012,838.472 347.418,836.256 342.792,835.422 C338.158,834.544 333.604,834.896 329.778,835.574 C325.944,836.272 322.774,837.242 320.612,838.07 C318.442,838.874 317.228,839.436 317.228,839.436" fill="#90918D"/>
    <path d="M844.242,347.638 C844.242,347.638 844.878,346.676 846.386,345.316 C847.148,344.652 848.116,343.866 849.354,343.132 C850.588,342.386 852.074,341.664 853.812,341.094 C854.69,340.872 855.616,340.598 856.6,340.402 C857.584,340.288 858.632,340.136 859.702,340.142 C861.846,340.134 864.174,340.36 866.414,341.106 C868.678,341.802 870.898,342.822 872.948,344.132 C873.932,344.84 874.92,345.552 875.914,346.27 L878.554,348.74 L879.202,349.372 L879.358,349.53 L879.628,349.832 L879.89,350.146 L880.94,351.416 C881.624,352.154 882.398,353.51 883.082,354.528 C884.354,356.702 885.226,358.99 885.768,361.292 C886.424,363.57 886.428,365.884 886.382,367.988 C886.238,370.106 885.878,372.062 885.288,373.768 C884.214,377.21 882.57,379.696 881.28,381.254 C880.636,382.038 880.062,382.59 879.66,382.948 C879.26,383.302 879.05,383.494 879.05,383.494 C879.05,383.494 879.48,382.418 879.98,380.574 C880.488,378.726 881.002,376.072 881.124,373.002 C881.206,371.468 881.042,369.832 880.882,368.168 C880.574,366.508 880.202,364.802 879.55,363.146 C878.98,361.468 877.988,359.88 877.03,358.336 C876.436,357.608 876.16,357.016 875.354,356.134 L874.28,354.884 L874.006,354.572 C874.018,354.586 873.792,354.324 874,354.564 L873.858,354.438 L873.316,353.926 L871.178,351.836 C870.406,351.256 869.666,350.63 868.92,350.024 C867.358,348.948 865.832,347.878 864.194,347.188 C862.57,346.482 860.944,345.93 859.32,345.612 C857.694,345.336 856.1,345.224 854.584,345.234 C853.084,345.35 851.664,345.484 850.398,345.738 C849.152,346.02 848.026,346.288 847.116,346.58 C845.284,347.15 844.242,347.638 844.242,347.638" fill="#90918D"/>
    <path d="M812.362,510.884 C812.362,510.884 812.952,509.788 814.682,508.528 C816.382,507.294 819.006,505.682 822.538,504.598 C826.038,503.488 830.496,502.942 835.17,503.858 C839.854,504.716 844.496,507.28 848.1,510.758 L849.414,512.102 C849.976,512.714 850.206,513.064 850.616,513.562 C851.366,514.41 852.078,515.492 852.76,516.616 C854.116,518.792 854.972,521.092 855.518,523.412 C856.124,525.718 856.218,528.016 856.17,530.156 C856.062,532.294 855.768,534.294 855.26,536.066 C854.346,539.644 852.842,542.332 851.75,544.114 C850.6,545.892 849.742,546.736 849.742,546.736 C849.742,546.736 850.328,545.684 851.092,543.784 C851.476,542.828 851.89,541.654 852.25,540.284 C852.584,538.904 852.944,537.358 853.148,535.648 C853.608,532.248 853.522,528.228 852.35,524.254 C851.78,522.278 850.854,520.302 849.742,518.522 C849.194,517.66 848.624,516.776 847.796,515.858 C847.448,515.454 846.98,514.848 846.726,514.604 L845.554,513.404 C842.374,510.282 838.472,508.014 834.456,506.988 C830.436,505.928 826.406,506.016 823.03,506.612 C819.648,507.218 816.858,508.188 815.046,509.124 C814.144,509.596 813.432,509.982 812.996,510.318 C812.558,510.642 812.362,510.884 812.362,510.884" fill="#90918D"/>
    <path d="M121.742,418.104 C121.742,418.104 121.414,417.364 120.792,415.968 C120.256,414.538 119.464,412.4 118.958,409.556 C117.918,403.914 117.696,395.318 121.002,385.704 C122.646,380.932 125.158,375.882 129.034,371.342 C132.854,366.824 138.036,362.688 144.34,360.464 C150.542,358.098 157.714,357.618 164.296,358.512 C170.874,359.308 177.52,360.896 183.814,363.082 C190.128,365.286 196.168,368.098 201.926,371.124 C207.706,374.118 213.074,377.56 218.198,380.926 C228.422,387.708 237.404,394.65 245.152,400.452 C252.908,406.254 259.454,410.9 264.286,413.816 C269.102,416.75 272.064,418.104 272.064,418.104 C272.064,418.104 271.294,417.87 269.832,417.432 C268.376,416.968 266.24,416.264 263.612,415.136 C258.332,412.934 251.058,409.124 242.756,403.996 C234.408,398.942 224.974,392.67 214.706,386.442 C204.416,380.276 193.238,374.108 181.392,370.02 C175.48,367.884 169.486,366.372 163.42,365.546 C157.426,364.628 151.706,364.762 146.454,366.522 C141.226,368.204 136.632,371.218 133.056,374.966 C129.484,378.712 126.754,382.984 124.864,387.23 C121.028,395.76 120.16,403.856 120.378,409.394 C120.522,412.182 120.848,414.368 121.168,415.844 C121.54,417.316 121.742,418.104 121.742,418.104" fill="#90918D"/>
    <path d="M327.98,686.138 C327.98,686.138 326.392,688.222 323.822,691.98 C321.208,695.716 317.788,701.26 313.926,708.02 C310.042,714.774 306.06,722.954 302.382,731.908 C298.76,740.854 295.61,750.802 294.804,760.92 C294.41,765.946 294.596,771.032 295.952,775.698 C296.658,778.012 297.602,780.218 298.868,782.208 C299.43,783.13 300.258,784.268 300.958,785.188 C301.686,786.1 302.406,787.014 303.228,787.862 C306.4,791.302 310.118,793.996 314.042,795.696 C317.978,797.394 322.082,798.082 325.876,798.1 C333.512,798.09 339.814,796.048 343.936,794.238 C348.104,792.422 350.248,790.896 350.248,790.896 C350.248,790.896 348.31,792.688 344.25,794.886 C340.216,796.976 334.014,799.822 325.916,800.182 C321.9,800.358 317.44,799.85 313.042,798.204 C308.648,796.572 304.366,793.796 300.898,790.056 C300.002,789.158 299.174,788.15 298.34,787.134 C297.526,786.084 296.86,785.21 296.078,784.008 C294.598,781.768 293.482,779.278 292.65,776.696 C291.06,771.496 290.766,765.976 291.13,760.626 C292.168,749.898 295.604,739.766 299.446,730.682 C303.332,721.588 307.974,713.618 312.156,706.962 C316.348,700.298 320.386,695.12 323.252,691.556 C326.156,688.006 327.98,686.138 327.98,686.138" fill="#90918D"/>
    <path d="M583.186,763.71 C583.186,763.71 584.624,763.63 587.124,763.61 C588.35,763.464 589.752,763.092 591.292,762.882 C592.066,762.62 592.894,762.338 593.764,762.042 C594.628,761.774 595.53,761.51 596.416,761.016 C597.304,760.59 598.222,760.144 599.178,759.686 C600.066,759.088 601.006,758.532 601.952,757.938 C602.936,757.42 603.78,756.592 604.694,755.868 C605.584,755.114 606.574,754.458 607.386,753.532 C608.222,752.656 609.144,751.846 609.952,750.904 C610.706,749.906 611.476,748.912 612.28,747.946 C613.096,746.982 613.632,745.796 614.366,744.752 L615.398,743.134 L616.202,741.384 C616.718,740.212 617.416,739.118 617.804,737.888 C618.218,736.676 618.636,735.468 619.046,734.266 C619.702,731.82 620.328,729.36 620.678,726.932 C620.764,724.478 621.398,722.1 621.206,719.802 C621.082,717.518 621.378,715.286 621.03,713.27 C620.788,711.246 620.64,709.352 620.51,707.648 C620.206,705.978 619.936,704.522 619.722,703.318 C619.312,700.882 619.132,699.426 619.132,699.426 C619.132,699.426 619.882,700.63 621.104,702.834 C621.698,703.94 622.46,705.284 623.226,706.878 C623.838,708.526 624.522,710.404 625.194,712.498 C626.026,714.556 626.242,716.956 626.698,719.462 C627.276,721.964 627.084,724.694 627.148,727.502 C627.222,728.922 626.854,730.33 626.722,731.782 C626.48,733.218 626.456,734.724 625.944,736.138 C625.514,737.578 625.078,739.02 624.64,740.474 C624.194,741.922 623.416,743.262 622.804,744.658 L621.8,746.716 L620.554,748.634 C619.686,749.884 618.924,751.208 617.916,752.328 C616.928,753.464 615.914,754.562 614.906,755.628 C613.85,756.65 612.678,757.53 611.592,758.456 C610.534,759.408 609.334,760.156 608.148,760.84 C606.948,761.522 605.854,762.284 604.608,762.732 C603.41,763.244 602.252,763.76 601.116,764.196 C599.924,764.486 598.78,764.77 597.674,765.038 C595.51,765.666 593.35,765.502 591.584,765.672 C589.702,765.494 588.104,765.302 586.886,765.05 C584.526,764.238 583.186,763.71 583.186,763.71" fill="#90918D"/>
    <path d="M196.57,136.32 C196.57,136.32 196.446,135.972 196.206,135.316 C196.014,134.644 195.736,133.634 195.66,132.31 C195.518,129.694 195.802,125.778 197.656,121.548 C199.454,117.368 202.55,112.652 207.424,109.278 C209.846,107.624 212.602,106.184 215.6,105.394 C218.586,104.568 221.734,104.194 224.846,104.268 C227.876,104.364 231.124,104.856 234.02,105.862 C236.96,106.856 239.656,108.368 241.982,110.172 C246.65,113.82 249.492,118.668 251.092,122.932 C252.698,127.246 252.86,131.15 252.592,133.764 C252.446,135.084 252.146,136.09 251.87,136.736 C251.6,137.384 251.408,137.704 251.408,137.704 C251.408,137.704 251.994,136.284 251.882,133.734 C251.846,131.198 250.994,127.608 249.194,123.724 C247.394,119.838 244.3,115.77 240.054,112.756 C237.938,111.234 235.494,110.082 232.912,109.236 C230.286,108.384 227.624,108.006 224.756,107.944 C219.158,107.734 213.626,109.184 209.234,111.986 C204.842,114.782 201.508,118.652 199.538,122.446 C197.534,126.228 196.54,129.774 196.378,132.314 C196.178,134.85 196.57,136.32 196.57,136.32" fill="#90918D"/>
    <path d="M351.326,430.238 C351.326,430.238 352.456,430.006 354.434,429.694 C355.404,429.486 356.546,429.134 357.844,428.796 C359.118,428.3 360.576,427.822 362.094,427.14 C363.608,426.444 365.216,425.664 366.828,424.664 C368.5,423.784 370.044,422.488 371.708,421.306 C372.488,420.642 373.28,419.968 374.082,419.284 C374.862,418.576 375.562,417.766 376.338,417.022 C377.126,416.298 377.796,415.45 378.468,414.596 C379.126,413.732 379.896,412.952 380.438,412.002 L382.256,409.288 C382.798,408.356 383.268,407.376 383.776,406.428 C384.856,404.564 385.462,402.516 386.308,400.636 C386.83,398.648 387.55,396.77 387.94,394.902 C388.238,393.028 388.738,391.274 388.916,389.606 C389.07,387.94 389.27,386.408 389.448,385.034 C389.564,383.664 389.534,382.464 389.578,381.468 C389.646,379.48 389.73,378.322 389.73,378.322 C389.73,378.322 389.966,379.434 390.294,381.422 C390.436,382.412 390.684,383.624 390.82,385.022 C390.904,386.424 390.988,388.016 391.03,389.762 C391.08,391.504 390.808,393.384 390.64,395.39 C390.424,397.39 389.88,399.46 389.406,401.614 C388.602,403.668 388.138,405.954 386.968,407.99 C386.444,409.032 385.952,410.1 385.38,411.13 L383.45,414.118 C382.838,415.138 381.988,415.984 381.256,416.91 C380.502,417.824 379.748,418.73 378.88,419.512 C377.268,421.212 375.418,422.59 373.636,423.904 C371.788,425.122 369.99,426.3 368.114,427.086 C366.312,428.006 364.492,428.606 362.812,429.122 C361.138,429.656 359.53,429.874 358.138,430.128 C356.702,430.238 355.47,430.378 354.47,430.408 C352.474,430.33 351.326,430.238 351.326,430.238" fill="#90918D"/>
    <path d="M143.924,58.816 C143.924,58.816 144.014,58.618 144.184,58.25 C144.386,57.892 144.514,57.302 144.996,56.684 C145.42,56.014 146.002,55.232 146.802,54.486 C147.596,53.724 148.59,52.932 149.8,52.29 C150.982,51.596 152.382,51.052 153.902,50.64 C155.426,50.236 157.078,49.974 158.798,49.966 C162.234,49.898 165.97,50.608 169.294,52.422 C170.944,53.28 172.51,54.572 173.7,55.84 C175.096,57.302 175.908,58.81 176.748,60.34 C178.232,63.44 178.976,66.546 179.126,69.228 C179.312,71.906 178.954,74.164 178.404,75.63 C178.136,76.36 177.834,76.904 177.568,77.222 C177.31,77.542 177.18,77.712 177.18,77.712 C177.18,77.712 177.6,76.918 177.712,75.466 C177.84,74.016 177.666,71.932 177.08,69.538 C176.508,67.142 175.46,64.44 173.938,61.878 C173.164,60.648 172.212,59.31 171.228,58.378 C170.082,57.226 168.952,56.344 167.544,55.65 C164.862,54.13 161.696,53.468 158.74,53.234 C155.766,53.03 152.97,53.478 150.686,54.246 C149.542,54.63 148.542,55.12 147.684,55.622 C146.818,56.134 146.13,56.654 145.592,57.134 C145.006,57.578 144.648,58.092 144.352,58.364 C144.072,58.658 143.924,58.816 143.924,58.816" fill="#90918D"/>
    <path d="M337.62,50.664 C337.62,50.664 337.732,50.376 337.95,49.838 C338.168,49.316 338.522,48.496 339.138,47.59 C340.314,45.756 342.542,43.246 346.078,41.56 C349.556,39.814 354.136,38.904 358.962,39.146 C363.784,39.346 368.896,40.67 373.474,43.19 C374.564,43.802 375.794,44.624 376.726,45.336 C377.772,46.16 378.806,47.04 379.656,47.994 C381.428,49.9 382.842,52.042 383.916,54.228 C386.032,58.638 386.78,63.154 386.796,66.946 C386.826,70.754 386.082,73.868 385.346,75.928 C384.58,78.004 383.698,78.926 383.698,78.926 C383.698,78.926 384.334,77.834 384.702,75.744 C385.126,73.676 385.27,70.624 384.8,67.072 C384.346,63.54 383.284,59.456 381.126,55.68 C380.08,53.786 378.748,51.982 377.15,50.418 C376.342,49.616 375.52,48.902 374.63,48.232 C373.608,47.478 372.774,46.958 371.714,46.382 C363.56,41.992 353.498,41.274 346.93,43.598 C343.632,44.75 341.136,46.484 339.732,48.056 C338.292,49.584 337.62,50.664 337.62,50.664" fill="#90918D"/>
    <path d="M659.222,267.882 C659.222,267.882 660.304,269.176 662.202,271.446 C663.14,272.586 664.018,274.19 665.178,275.94 C666.238,277.746 667.26,279.886 668.19,282.294 C668.578,283.532 668.988,284.82 669.406,286.156 C669.834,287.492 669.96,288.948 670.264,290.414 C670.604,291.88 670.686,293.414 670.722,294.994 C670.8,296.57 670.882,298.19 670.616,299.816 C670.402,303.112 669.57,306.416 668.566,309.73 C667.886,311.318 667.194,312.914 666.506,314.52 C665.828,316.132 664.772,317.546 663.916,319.07 C663.066,320.608 661.992,321.976 660.866,323.3 C659.738,324.608 658.764,326.062 657.518,327.226 C655.066,329.59 652.706,331.99 650.038,333.818 C648.75,334.78 647.476,335.728 646.234,336.654 C644.902,337.442 643.596,338.206 642.332,338.954 C641.058,339.694 639.828,340.41 638.636,341.106 C637.416,341.75 636.19,342.268 635.034,342.824 C632.726,343.902 630.62,344.916 628.678,345.632 C626.73,346.306 625.022,346.898 623.62,347.382 C620.816,348.302 619.206,348.832 619.206,348.832 C619.206,348.832 620.71,348.06 623.346,346.718 C624.67,346.07 626.272,345.288 628.112,344.384 C629.92,343.436 631.862,342.178 634.066,340.992 C635.156,340.366 636.312,339.768 637.448,339.05 C638.558,338.286 639.702,337.498 640.882,336.686 C642.054,335.874 643.256,335.04 644.484,334.186 C645.636,333.238 646.808,332.274 648.002,331.288 C650.522,329.458 652.592,327.024 654.92,324.796 C656.088,323.682 656.968,322.304 658.01,321.068 C659.054,319.82 660.038,318.526 660.812,317.092 C661.612,315.692 662.62,314.386 663.264,312.912 C663.916,311.442 664.574,309.978 665.218,308.524 C665.674,307.004 666.124,305.494 666.57,304.004 C667.07,302.522 667.1,300.962 667.394,299.476 C667.722,297.982 667.652,296.488 667.71,295.026 C667.792,293.56 667.828,292.122 667.608,290.732 C667.424,289.348 667.416,287.962 667.1,286.676 C666.796,285.384 666.506,284.134 666.226,282.932 C665.472,280.6 664.752,278.416 663.964,276.568 C663.062,274.77 662.414,273.11 661.624,271.858 C660.092,269.33 659.222,267.882 659.222,267.882" fill="#90918D"/>
  </g>
</svg>
