<svg xmlns="http://www.w3.org/2000/svg" version="1.1" xmlns:xlink="http://www.w3.org/1999/xlink" xmlns:svgjs="http://svgjs.com/svgjs" width="1440" height="560" preserveAspectRatio="none" viewBox="0 0 1440 560"><g mask="url(&quot;#SvgjsMask1042&quot;)" fill="none"><rect width="1440" height="560" x="0" y="0" fill="url(#SvgjsLinearGradient1043)"></rect><path d="M889.6575245067825 527.9599739156611L937.5023934088462 434.059131573954 843.6015510671391 386.21426267189025 795.7566821650754 480.1151050135974z" fill="rgba(28, 83, 142, 0.4)" class="triangle-float2"></path><path d="M1196.877437292052 488.7805845066588L1136.880308490485 403.095804598451 1051.1955285822773 463.092933400018 1111.1926573838443 548.7777133082258z" fill="rgba(28, 83, 142, 0.4)" class="triangle-float2"></path><path d="M1057.9597677039842 76.50220923609533L1188.5456538159924 161.30567524165875 1273.3491198215559 30.71978912965048 1142.7632337095476-54.08367687591294z" fill="rgba(28, 83, 142, 0.4)" class="triangle-float1"></path><path d="M1344.2105980485182 222.81810367878083L1260.7531102135492 206.5956113935622 1244.5306179283307 290.0530992285311 1327.9881057632997 306.27559151374976z" fill="rgba(28, 83, 142, 0.4)" class="triangle-float2"></path><path d="M1195.8088747730562 57.06840721608484L1091.032711903722 130.43346628188098 1164.3977709695182 235.2096291512152 1269.1739338388525 161.8445700854191z" fill="rgba(28, 83, 142, 0.4)" class="triangle-float3"></path><path d="M431.71484664156355 228.00866809357143L506.1302642429931 290.45061755683423 568.572213706256 216.03519995540466 494.15679610482636 153.59325049214183z" fill="rgba(28, 83, 142, 0.4)" class="triangle-float1"></path><path d="M1037.0227208767099 75.58452623366597L1183.8727736338813 126.14905441100413 1234.4373018112194-20.700998346167182 1087.587249054048-71.26552652350534z" fill="rgba(28, 83, 142, 0.4)" class="triangle-float1"></path><path d="M214.0132278130594 466.6765465067331L110.24543306469974 426.8438221079009 70.41270866586757 530.6116168562605 174.18050341422722 570.4443412550927z" fill="rgba(28, 83, 142, 0.4)" class="triangle-float1"></path><path d="M1385.1724518919245-31.926788410055103L1283.359972105497-13.97450125087271 1301.3122592646794 87.83797853555481 1403.1247390511069 69.88569137637242z" fill="rgba(28, 83, 142, 0.4)" class="triangle-float3"></path><path d="M416.5132675504942 23.295519699301803L309.6942353794031-11.412087785622159 274.98662789447917 95.40694438546895 381.80566006557024 130.11455187039292z" fill="rgba(28, 83, 142, 0.4)" class="triangle-float1"></path><path d="M40.97752051875126 295.2544550635117L54.70757168183091 452.1896579771011 211.64277459542024 438.4596068140214 197.9127234323406 281.5244039004321z" fill="rgba(28, 83, 142, 0.4)" class="triangle-float1"></path><path d="M310.862127449435 6.642741159785167L219.0136740568447-6.265717146133159 206.10521575092636 85.58273624645713 297.95366914351666 98.49119455237545z" fill="rgba(28, 83, 142, 0.4)" class="triangle-float1"></path><path d="M1403.3462996791177 605.5613712230452L1345.33515701049 454.4371778266116 1194.2109636140567 512.4483204952392 1252.222106282684 663.5725138916727z" fill="rgba(28, 83, 142, 0.4)" class="triangle-float2"></path><path d="M742.3557131220448 97.04425696104494L812.6666409866231 169.85335415555772 885.4757381811359 99.54242629097944 815.1648103165576 26.73332909646666z" fill="rgba(28, 83, 142, 0.4)" class="triangle-float2"></path><path d="M735.4866951710709 322.43450172050177L790.5522298546954 440.5229219310934 908.640650065287 385.4573872474689 853.5751153816625 267.36896703687734z" fill="rgba(28, 83, 142, 0.4)" class="triangle-float1"></path><path d="M416.03395593217965 136.41812331507762L458.9246912584575 52.24031557488365 374.74688351826353 9.349580248605776 331.85614819198565 93.52738798879975z" fill="rgba(28, 83, 142, 0.4)" class="triangle-float3"></path><path d="M489.62914557756017 387.8106847691036L561.9684897822508 295.22054647597474 469.378351489122 222.88120227128408 397.03900728443136 315.4713405644129z" fill="rgba(28, 83, 142, 0.4)" class="triangle-float2"></path><path d="M40.23078308228722 355.3642315276711L90.36017248275351 264.92841910663276-0.07563993828483717 214.79902970616646-50.20502933875113 305.23484212720484z" fill="rgba(28, 83, 142, 0.4)" class="triangle-float2"></path><path d="M742.0305568197222 229.53237094698437L806.4066438969968 285.49364967576173 862.3679226257741 221.11756259848713 797.9918355484995 165.15628386970977z" fill="rgba(28, 83, 142, 0.4)" class="triangle-float3"></path><path d="M539.6258052748942 447.34380897794995L487.02304961132984 584.3786725298615 624.0579131632414 636.9814281934259 676.6606688268058 499.9465646415143z" fill="rgba(28, 83, 142, 0.4)" class="triangle-float3"></path></g><defs><mask id="SvgjsMask1042"><rect width="1440" height="560" fill="#ffffff"></rect></mask><linearGradient x1="50%" y1="100%" x2="50%" y2="0%" gradientUnits="userSpaceOnUse" id="SvgjsLinearGradient1043"><stop stop-color="rgba(0, 0, 0, 1)" offset="0"></stop><stop stop-color="rgba(14, 42, 71, 1)" offset="0.52"></stop><stop stop-color="rgba(0, 21, 40, 1)" offset="1"></stop></linearGradient><style>
            @keyframes float1 {
                0%{transform: translate(0, 0)}
                50%{transform: translate(-10px, 0)}
                100%{transform: translate(0, 0)}
            }

            .triangle-float1 {
                animation: float1 5s infinite;
            }

            @keyframes float2 {
                0%{transform: translate(0, 0)}
                50%{transform: translate(-5px, -5px)}
                100%{transform: translate(0, 0)}
            }

            .triangle-float2 {
                animation: float2 4s infinite;
            }

            @keyframes float3 {
                0%{transform: translate(0, 0)}
                50%{transform: translate(0, -10px)}
                100%{transform: translate(0, 0)}
            }

            .triangle-float3 {
                animation: float3 6s infinite;
            }
        </style></defs></svg>